<svg xmlns="http://www.w3.org/2000/svg" viewBox="0 0 110 160">
  <path fill="#FFF" d="M36 114c-1.1 0-2.1-.9-2.2-2l-.5-4c-.1-1.1-1.1-2-2.2-2H11c-1.1 0-2.1.9-2.2 2l-.5 4c-.1 1.1-.9 2-1.7 2s-1.6.9-1.6 2v36c0 1.1.9 2 2 2h46c1.1 0 2-.9 2-2v-36c0-1.1-.9-2-2-2H36z"/>
  <path fill="none" stroke="#231F20" stroke-miterlimit="10" d="M36 114.5c-1.1 0-2.1-1.1-2.2-2.2l-.5-3.9c-.1-1.1-1.1-1.9-2.2-1.9H11c-1.1 0-2.1.6-2.2 1.7l-.5 3.9c-.1 1.1-1.2 1.9-2 1.9s-1.8.8-1.8 1.9v36c0 1.1 1.4 2.5 2.5 2.5h46c1.1 0 1.5-1.4 1.5-2.5v-36c0-1.1-.4-1.5-1.5-1.5H36z"/>
  <path fill="none" stroke="#231F20" stroke-width=".973" stroke-miterlimit="10" d="M39.7 137.1c-1.1 1.5-2.8 2.4-4.8 2.4-2.2 0-4.2-1.2-5.2-3"/>
  <circle fill="#231F20" cx="25.3" cy="126" r="2"/>
  <circle fill="#231F20" cx="45.3" cy="126" r="2"/>
  <path fill="#FFF" d="M88 114c-1.1 0-2.1-.9-2.2-2l-.5-4c-.1-1.1-1.1-2-2.2-2H63c-1.1 0-2.1.9-2.2 2l-.5 4c-.1 1.1-.9 2-1.7 2s-1.5.9-1.5 2v36c0 1.1.9 2 2 2h46c1.1 0 2-.9 2-2v-36c0-1.1-.9-2-2-2H88z"/>
  <path fill="none" stroke="#231F20" stroke-miterlimit="10" d="M88 114.5c-1.1 0-2.1-1.1-2.2-2.2l-.5-3.9c-.1-1.1-1.1-1.9-2.2-1.9H63c-1.1 0-2.1.6-2.2 1.7l-.5 3.9c-.1 1.1-1.2 1.9-2 1.9s-1.8.8-1.8 1.9v36c0 1.1 1.4 2.5 2.5 2.5h46c1.1 0 1.5-1.4 1.5-2.5v-36c0-1.1-.4-1.5-1.5-1.5H88z"/>
  <path fill="none" stroke="#231F20" stroke-width=".973" stroke-miterlimit="10" d="M86.7 137.1c-1.1 1.5-2.8 2.4-4.8 2.4-2.2 0-4.2-1.2-5.2-3"/>
  <circle fill="#231F20" cx="72.3" cy="126" r="2"/>
  <circle fill="#231F20" cx="92.3" cy="126" r="2"/>
  <path fill="#FFF" d="M62 114c-1.1 0-2.1-.9-2.2-2l-.5-4c-.1-1.1-1.1-2-2.2-2H37c-1.1 0-2.1.9-2.2 2l-.5 4c-.1 1.1-.9 2-1.7 2s-1.5.9-1.5 2v36c0 1.1.9 2 2 2h46c1.1 0 2-.9 2-2v-36c0-1.1-.9-2-2-2H62z"/>
  <path fill="none" stroke="#231F20" stroke-miterlimit="10" d="M62 114.5c-1.1 0-2.1-1.1-2.2-2.2l-.5-3.9c-.1-1.1-1.1-1.9-2.2-1.9H37c-1.1 0-2.1.6-2.2 1.7l-.5 3.9c-.1 1.1-1.2 1.9-2 1.9s-1.8.8-1.8 1.9v36c0 1.1 1.4 2.5 2.5 2.5h46c1.1 0 1.5-1.4 1.5-2.5v-36c0-1.1-.4-1.5-1.5-1.5H62z"/>
  <path fill="none" stroke="#231F20" stroke-width=".973" stroke-miterlimit="10" d="M60.7 137.1c-1.1 1.5-2.8 2.4-4.8 2.4-2.2 0-4.2-1.2-5.2-3"/>
  <circle fill="#231F20" cx="46.3" cy="126" r="2"/>
  <circle fill="#231F20" cx="66.3" cy="126" r="2"/>
  <path fill="#FFF" d="M36 114c-1.1 0-2.1-.9-2.2-2l-.5-4c-.1-1.1-1.1-2-2.2-2H11c-1.1 0-2.1.9-2.2 2l-.5 4c-.1 1.1-.9 2-1.7 2s-1.6.9-1.6 2v36c0 1.1.9 2 2 2h46c1.1 0 2-.9 2-2v-36c0-1.1-.9-2-2-2H36z"/>
  <path fill="none" stroke="#231F20" stroke-miterlimit="10" d="M36 114.5c-1.1 0-2.1-1.1-2.2-2.2l-.5-3.9c-.1-1.1-1.1-1.9-2.2-1.9H11c-1.1 0-2.1.6-2.2 1.7l-.5 3.9c-.1 1.1-1.2 1.9-2 1.9s-1.8.8-1.8 1.9v36c0 1.1 1.4 2.5 2.5 2.5h46c1.1 0 1.5-1.4 1.5-2.5v-36c0-1.1-.4-1.5-1.5-1.5H36z"/>
  <path fill="none" stroke="#231F20" stroke-width=".973" stroke-miterlimit="10" d="M34.7 137.1c-1.1 1.5-2.8 2.4-4.8 2.4-2.2 0-4.2-1.2-5.2-3"/>
  <circle fill="#231F20" cx="20.3" cy="126" r="2"/>
  <circle fill="#231F20" cx="40.3" cy="126" r="2"/>
  <path fill="#FFF" stroke="#000" stroke-miterlimit="10" d="M88.7 31.1c-1.7-1.7-3.7-2.9-5.8-3.6v-.8c0-8.3-6.7-15-15-15-2.2 0-4.2.5-6 1.3-.6-1.1-1.4-2.1-2.4-3.1-5.4-5.4-14-5.8-19.8-1.2-2.9-1.6-6.2-2.5-9.8-2.5-11.3 0-20.5 9.2-20.5 20.5 0 1 .1 2.1.2 3-.6.5-1.1.9-1.6 1.4-5.8 5.8-5.9 15.2-.1 21.1-.2 1.1-.3 2.3-.3 3.5 0 12.3 9.9 22.2 22.2 22.2 3.8 0 7.4-1 10.5-2.6 4.8 3.3 11.1 3.5 16.1.6 3.3 2 7.2 3.1 11.4 3.1 12.3 0 22.3-10 22.3-22.3 0-1.8-.2-3.6-.6-5.3 5-5.9 4.7-14.7-.8-20.3z"/>
  <path fill="#231F20" d="M55.4 49.2h4v-9.5l-4.5-4.5-2.8 2.8 3.3 3.3v7.9zm4 2H45.5l-3.3-3.3 1.4-1.4 2.7 2.7H52l-5.5-5.6 1.4-1.4 5.5 5.5v-5.6l-2.7-2.7 1.4-1.4-6.9-6.9H31.4l4 4h8.2l2.9 2.9-4.2 4.2-2.9-2.9V37h-4v4l6.9 6.9-2.8 2.8 4.5 4.5h19.5l-4.1-4z"/>
  <ellipse fill="#FFF" stroke="#231F20" stroke-miterlimit="10" cx="71" cy="99.3" rx="3" ry="2"/>
  <ellipse fill="#FFF" stroke="#231F20" stroke-miterlimit="10" cx="45" cy="99.3" rx="3" ry="2"/>
  <ellipse fill="#FFF" stroke="#231F20" stroke-miterlimit="10" cx="21" cy="99.3" rx="3" ry="2"/>
  <ellipse fill="#FFF" stroke="#231F20" stroke-width="1.017" stroke-miterlimit="10" cx="65.3" cy="84.1" rx="5.1" ry="3.1"/>
  <ellipse fill="#FFF" stroke="#231F20" stroke-miterlimit="10" cx="45" cy="84" rx="5" ry="3"/>
  <ellipse fill="#FFF" stroke="#231F20" stroke-width="1.017" stroke-miterlimit="10" cx="25.7" cy="84.1" rx="5.1" ry="3.1"/>
</svg>
