<svg xmlns="http://www.w3.org/2000/svg" viewBox="0 0 110 160">
  <path fill="#FFF" d="M36 114c-1.1 0-2.1-.9-2.2-2l-.5-4c-.1-1.1-1.1-2-2.2-2H11c-1.1 0-2.1.9-2.2 2l-.5 4c-.1 1.1-.9 2-1.7 2s-1.6.9-1.6 2v36c0 1.1.9 2 2 2h46c1.1 0 2-.9 2-2v-36c0-1.1-.9-2-2-2H36z"/>
  <path fill="none" stroke="#231F20" stroke-miterlimit="10" d="M36 114.5c-1.1 0-2.1-1.1-2.2-2.2l-.5-3.9c-.1-1.1-1.1-1.9-2.2-1.9H11c-1.1 0-2.1.6-2.2 1.7l-.5 3.9c-.1 1.1-1.2 1.9-2 1.9s-1.8.8-1.8 1.9v36c0 1.1 1.4 2.5 2.5 2.5h46c1.1 0 1.5-1.4 1.5-2.5v-36c0-1.1-.4-1.5-1.5-1.5H36z"/>
  <path fill="none" stroke="#231F20" stroke-width=".973" stroke-miterlimit="10" d="M39.7 137.1c-1.1 1.5-2.8 2.4-4.8 2.4-2.2 0-4.2-1.2-5.2-3"/>
  <circle fill="#231F20" cx="25.3" cy="126" r="2"/>
  <circle fill="#231F20" cx="45.3" cy="126" r="2"/>
  <path fill="#FFF" d="M88 114c-1.1 0-2.1-.9-2.2-2l-.5-4c-.1-1.1-1.1-2-2.2-2H63c-1.1 0-2.1.9-2.2 2l-.5 4c-.1 1.1-.9 2-1.7 2s-1.5.9-1.5 2v36c0 1.1.9 2 2 2h46c1.1 0 2-.9 2-2v-36c0-1.1-.9-2-2-2H88z"/>
  <path fill="none" stroke="#231F20" stroke-miterlimit="10" d="M88 114.5c-1.1 0-2.1-1.1-2.2-2.2l-.5-3.9c-.1-1.1-1.1-1.9-2.2-1.9H63c-1.1 0-2.1.6-2.2 1.7l-.5 3.9c-.1 1.1-1.2 1.9-2 1.9s-1.8.8-1.8 1.9v36c0 1.1 1.4 2.5 2.5 2.5h46c1.1 0 1.5-1.4 1.5-2.5v-36c0-1.1-.4-1.5-1.5-1.5H88z"/>
  <path fill="none" stroke="#231F20" stroke-width=".973" stroke-miterlimit="10" d="M86.7 137.1c-1.1 1.5-2.8 2.4-4.8 2.4-2.2 0-4.2-1.2-5.2-3"/>
  <circle fill="#231F20" cx="72.3" cy="126" r="2"/>
  <circle fill="#231F20" cx="92.3" cy="126" r="2"/>
  <path fill="#FFF" d="M62 114c-1.1 0-2.1-.9-2.2-2l-.5-4c-.1-1.1-1.1-2-2.2-2H37c-1.1 0-2.1.9-2.2 2l-.5 4c-.1 1.1-.9 2-1.7 2s-1.5.9-1.5 2v36c0 1.1.9 2 2 2h46c1.1 0 2-.9 2-2v-36c0-1.1-.9-2-2-2H62z"/>
  <path fill="none" stroke="#231F20" stroke-miterlimit="10" d="M62 114.5c-1.1 0-2.1-1.1-2.2-2.2l-.5-3.9c-.1-1.1-1.1-1.9-2.2-1.9H37c-1.1 0-2.1.6-2.2 1.7l-.5 3.9c-.1 1.1-1.2 1.9-2 1.9s-1.8.8-1.8 1.9v36c0 1.1 1.4 2.5 2.5 2.5h46c1.1 0 1.5-1.4 1.5-2.5v-36c0-1.1-.4-1.5-1.5-1.5H62z"/>
  <path fill="none" stroke="#231F20" stroke-width=".973" stroke-miterlimit="10" d="M60.7 137.1c-1.1 1.5-2.8 2.4-4.8 2.4-2.2 0-4.2-1.2-5.2-3"/>
  <circle fill="#231F20" cx="46.3" cy="126" r="2"/>
  <circle fill="#231F20" cx="66.3" cy="126" r="2"/>
  <path fill="#FFF" d="M36 114c-1.1 0-2.1-.9-2.2-2l-.5-4c-.1-1.1-1.1-2-2.2-2H11c-1.1 0-2.1.9-2.2 2l-.5 4c-.1 1.1-.9 2-1.7 2s-1.6.9-1.6 2v36c0 1.1.9 2 2 2h46c1.1 0 2-.9 2-2v-36c0-1.1-.9-2-2-2H36z"/>
  <path fill="none" stroke="#231F20" stroke-miterlimit="10" d="M36 114.5c-1.1 0-2.1-1.1-2.2-2.2l-.5-3.9c-.1-1.1-1.1-1.9-2.2-1.9H11c-1.1 0-2.1.6-2.2 1.7l-.5 3.9c-.1 1.1-1.2 1.9-2 1.9s-1.8.8-1.8 1.9v36c0 1.1 1.4 2.5 2.5 2.5h46c1.1 0 1.5-1.4 1.5-2.5v-36c0-1.1-.4-1.5-1.5-1.5H36z"/>
  <path fill="none" stroke="#231F20" stroke-width=".973" stroke-miterlimit="10" d="M34.7 137.1c-1.1 1.5-2.8 2.4-4.8 2.4-2.2 0-4.2-1.2-5.2-3"/>
  <circle fill="#231F20" cx="20.3" cy="126" r="2"/>
  <circle fill="#231F20" cx="40.3" cy="126" r="2"/>
  <g fill="#FFF">
    <path d="M88.2 31.4c5.6 5.6 5.8 14.4.8 20.3-1.5-6.1-5.5-11.3-10.9-14.2 2.5-2.5 4-5.9 4.2-9.7 2.2.7 4.2 1.9 5.9 3.6zm.8 20.3c.4 1.7.6 3.5.6 5.3 0 12.3-10 22.3-22.3 22.3-4.2 0-8.1-1.1-11.4-3.1 1.1-.6 2.1-1.4 3-2.3 4.8-4.7 5.7-11.9 2.7-17.5 1.7-1.4 3.2-3 4.3-4.8.3.4.7.8 1 1.1 5.9 5.9 15.4 5.9 21.2 0 .4-.4.7-.7.9-1zm0 0c-.3.3-.5.6-.8.9-5.9 5.9-15.4 5.9-21.2 0-.4-.4-.7-.8-1-1.1 1.4-2.4 2.2-5 2.2-7.9 0-.5 0-1.1-.1-1.6 3.9-.2 7.4-1.9 10-4.5 5.4 2.9 9.4 8 10.9 14.2z"/>
    <path d="M82.4 27v.8c-5.3-1.8-11.3-.6-15.4 3.6-.8.8-1.5 1.7-2.1 2.7-1.2-1.6-2.8-3-4.6-4.2 3.7-4.9 4.1-11.4 1.1-16.6 1.8-.8 3.9-1.3 6-1.3 8.3 0 15 6.7 15 15z"/>
    <path d="M82.4 27.7c-.2 3.8-1.8 7.2-4.2 9.7-3.2-1.8-6.8-2.8-10.7-2.8-.7 0-1.3 0-2 .1-.2-.3-.4-.5-.5-.7.6-.9 1.3-1.8 2.1-2.7 4-4.1 10-5.3 15.3-3.6z"/>
    <path d="M78.1 37.4c-2.6 2.6-6.1 4.3-10 4.5-.3-2.6-1.2-5-2.7-7.2.6-.1 1.3-.1 2-.1 3.9.1 7.5 1.1 10.7 2.8zm-10 4.5c.1.5.1 1 .1 1.6 0 2.9-.8 5.5-2.2 7.9-2.4-3-3.5-6.6-3.3-10.2 1.5.5 3.1.8 4.8.8.1 0 .4-.1.6-.1z"/>
    <path d="M68.1 41.9h-.7c-1.7 0-3.3-.3-4.8-.8.1-2.2.7-4.3 1.7-6.3.3 0 .7-.1 1-.1 1.6 2.2 2.5 4.6 2.8 7.2z"/>
    <path d="M64.8 34c.2.2.4.5.5.7-.4 0-.7.1-1 .1.2-.2.4-.5.5-.8z"/>
    <path d="M64.8 34c-.2.3-.3.6-.5.9-2.8.4-5.4 1.3-7.7 2.5-.9-.9-1.6-1.9-2.2-3 1.7-.7 3.2-1.8 4.6-3.1.5-.5.9-1 1.3-1.5 1.8 1.2 3.3 2.6 4.5 4.2zm1.1 17.4c-1.1 1.8-2.5 3.4-4.3 4.8-.7-1.3-1.6-2.5-2.7-3.7-2.5-2.5-5.6-3.9-8.8-4.3-.4-1.2-1-2.3-1.6-3.4 2-3.1 4.8-5.7 8-7.5 1.6 1.7 3.7 3 6 3.8-.1 3.7 1 7.4 3.4 10.3z"/>
    <path d="M64.4 34.9c-1.1 2-1.6 4.1-1.7 6.3-2.3-.8-4.3-2.1-6-3.8 2.3-1.3 4.9-2.2 7.7-2.5zm-2.7 21.3c3 5.7 2.1 12.8-2.7 17.5-.9.9-1.9 1.7-3 2.3-3.3-2-6-4.8-8-8.1 1.5-2.2 2.5-4.8 3.1-7.5 4-.4 7.7-1.9 10.6-4.2zm-.4-43c3 5.2 2.7 11.8-1.1 16.6-2.3-1.5-5-2.6-7.9-3.1.2-6 3.8-11.2 9-13.5zM59 10.1c.9.9 1.7 2 2.4 3.1-5.2 2.3-8.9 7.5-9 13.5-.8-.1-1.7-.3-2.5-.3-.2-7.5-4.5-14.1-10.7-17.5C45 4.3 53.6 4.7 59 10.1zm1.3 19.7c-.4.5-.8 1-1.3 1.5-1.4 1.4-2.9 2.4-4.6 3.1-1.3-2.2-2-4.8-2-7.5v-.3c2.9.6 5.6 1.7 7.9 3.2z"/>
    <path d="M59 52.6c1.1 1.1 2 2.3 2.7 3.7-2.9 2.3-6.5 3.8-10.6 4.3.3-1.5.5-3 .5-4.6 0-2.7-.5-5.3-1.4-7.7 3.2.4 6.3 1.8 8.8 4.3zm-4.6-18.1c.6 1.1 1.4 2.1 2.2 3-3.3 1.8-6 4.4-8 7.5-1-1.7-2.2-3.3-3.6-4.7 1.2-1.3 2.1-2.8 2.9-4.5 2.2 0 4.4-.4 6.5-1.3zm-2-7.5c0 2.8.7 5.3 2 7.5-2.1.9-4.3 1.3-6.5 1.3 1.3-2.7 2-5.6 2-8.8v-.6c.9.1 1.7.2 2.5.3v.3zM48 68c1.9 3.3 4.7 6.1 8 8.1-5 2.9-11.3 2.7-16.1-.6 3.3-1.8 6.1-4.4 8.1-7.5z"/>
    <path d="M51.6 56c0 1.6-.2 3.1-.5 4.6-1 .1-2 .2-3 .2-.9 0-1.8 0-2.7-.2-.2-1.2-.3-2.4-.3-3.6 0-3.1.6-6 1.8-8.7 1.1-.1 2.2-.1 3.3 0 .9 2.4 1.4 5 1.4 7.7zm-1.8-29.6v.6c0 3.1-.7 6.1-2 8.8-2-.1-4-.5-5.8-1.4-1.5-.7-3-1.7-4.3-3-.5-.5-1-1.1-1.5-1.7 3.3-2.1 7.4-3.3 11.8-3.3.7-.1 1.3-.1 1.8 0z"/>
    <path d="M49.8 26.4c-.6-.1-1.1-.1-1.7-.1-4.4 0-8.5 1.2-11.8 3.3-4.3-5.9-3.8-14.2 1.5-19.5.4-.4.9-.8 1.4-1.2 6.2 3.4 10.4 9.9 10.6 17.5zm-1.7 34.3c1 0 2-.1 3-.2-.6 2.7-1.6 5.2-3.1 7.5-1.3-2.3-2.2-4.8-2.6-7.4.9.1 1.8.1 2.7.1zm2.1-12.4c-1.1-.1-2.2-.1-3.3 0 .5-1.2 1.1-2.3 1.8-3.3.5 1 1.1 2.1 1.5 3.3z"/>
    <path d="M48.6 44.9c-.7 1-1.3 2.2-1.8 3.3-3.3.3-6.5 1.8-9.1 4.3-1.2 1.2-2.1 2.5-2.8 3.9-2-1.5-3.7-3.4-4.8-5.4.9-1.2 1.6-2.5 2.1-3.8 5.1-.7 9.6-3.3 12.8-7 1.4 1.4 2.6 3 3.6 4.7zM48 68c-2 3.1-4.8 5.7-8.2 7.5-.7-.5-1.4-1.1-2.1-1.8C33 69 32.1 62 34.9 56.4c2.9 2.2 6.5 3.6 10.5 4.1.4 2.7 1.3 5.2 2.6 7.5zm-.1-32.3c-.8 1.6-1.8 3.1-2.9 4.5-1.5-1.5-3.2-2.8-5-3.8l2.1-2.1c1.8.9 3.8 1.4 5.8 1.4z"/>
    <path d="M46.9 48.2c-1.1 2.7-1.8 5.6-1.8 8.7 0 1.2.1 2.4.3 3.6-4-.5-7.6-1.9-10.5-4.1.7-1.4 1.7-2.7 2.8-3.9 2.6-2.5 5.8-3.9 9.2-4.3zm-1.9-8c-3.2 3.8-7.7 6.3-12.8 7 1.6-4.2 1.2-8.9-1.1-12.8.1-.2.3-.4.4-.5 3 .3 5.9 1.2 8.4 2.6 1.9.9 3.6 2.2 5.1 3.7zm-2.9-5.8l-2.1 2c-2.5-1.4-5.4-2.3-8.4-2.6 1.3-1.6 2.9-3.1 4.7-4.2.4.6.9 1.2 1.5 1.7 1.2 1.3 2.7 2.3 4.3 3.1zm-3-25.5c-.5.4-.9.8-1.4 1.2-5.3 5.3-5.8 13.6-1.5 19.5-1.8 1.2-3.5 2.6-4.7 4.2h-.8c-.6-.9-1.2-1.7-2-2.5C23.4 26 15 25.5 9.1 30c-.1-1-.2-2-.2-3 0-11.3 9.2-20.5 20.5-20.5 3.5 0 6.8.9 9.7 2.4zm-1.3 64.9c.7.7 1.4 1.2 2.1 1.8-3.1 1.7-6.7 2.6-10.5 2.6-12.3 0-22.2-10-22.2-22.2 0-1.2.1-2.4.3-3.5l.1.1c5.9 5.9 15.3 5.9 21.2 0 .5-.5.9-1 1.3-1.5 1.2 2.1 2.8 3.9 4.8 5.4-2.8 5.6-1.8 12.6 2.9 17.3zm-6.7-39.4c2.3 3.9 2.6 8.7 1.1 12.8-.9.1-1.9.2-2.8.2h-.8c-.3-1.3-.5-2.6-.5-3.9 0-3.3 1.1-6.5 3-9.1zm-.4-.6h.8c-.2.2-.3.4-.4.5-.1-.1-.2-.3-.4-.5z"/>
    <path d="M30.7 33.8c.1.2.3.4.4.6-1.9 2.6-3.1 5.8-3.1 9.1 0 1.3.2 2.7.5 3.9-6-.2-11.3-3-14.9-7.2 4-4 9.5-6.4 15.6-6.4h1.5z"/>
    <path d="M30.7 33.8h-1.4c-6.1 0-11.6 2.5-15.6 6.4-2.4-2.8-4.1-6.3-4.6-10.2 5.9-4.5 14.3-4 19.7 1.4.7.7 1.4 1.5 1.9 2.4zm-1.3 13.6c1 0 1.9-.1 2.8-.2-.5 1.3-1.2 2.6-2.1 3.8-.6-1.1-1.1-2.3-1.5-3.6h.8z"/>
    <path d="M30.1 51c-.4.5-.8 1-1.3 1.5-5.9 5.9-15.4 5.9-21.2 0l-.1-.1c.7-4.8 3-9 6.3-12.3 3.6 4.3 8.9 7 14.9 7.2.2 1.4.7 2.6 1.4 3.7z"/>
    <path d="M13.7 40.2c-3.3 3.2-5.5 7.5-6.3 12.3-5.8-5.9-5.7-15.3.1-21.1.5-.5 1-1 1.6-1.4.6 3.9 2.2 7.4 4.6 10.2z"/>
  </g>
  <g fill="none" stroke="#000" stroke-miterlimit="10">
    <path d="M9.1 30c-.1-1-.2-2-.2-3 0-11.3 9.2-20.5 20.5-20.5 3.5 0 6.8.9 9.8 2.5m-.1-.1C45 4.3 53.6 4.7 59 10.1c.9.9 1.7 2 2.4 3.1"/>
    <path d="M61.3 13.2c1.8-.8 3.9-1.3 6-1.3 8.3 0 15 6.7 15 15v.8m.1 0c2.1.7 4.1 1.9 5.8 3.6 5.6 5.6 5.8 14.4.8 20.3m0 .1c.4 1.7.6 3.5.6 5.3 0 12.3-10 22.3-22.3 22.3-4.2 0-8.1-1.1-11.4-3.1m.1-.1c-5 2.9-11.3 2.7-16.1-.6m0 0c-3.1 1.7-6.7 2.6-10.5 2.6-12.3.1-22.2-9.9-22.2-22.1 0-1.2.1-2.4.3-3.5m0 0c-5.8-5.9-5.7-15.3.1-21.1.5-.5 1-1 1.6-1.4"/>
  </g>
  <path fill="#231F20" d="M55.2 49.2h4v-9.5l-4.5-4.5-2.8 2.8 3.3 3.3v7.9zm4 2H45.3L42 47.9l1.4-1.4 2.7 2.7h5.6l-5.5-5.6 1.4-1.4 5.5 5.5v-5.6l-2.7-2.7 1.4-1.4-6.8-6.9H31.2l4 4h8.2l2.9 2.9-4.3 4.3-2.9-2.9v-2.3h-4V41l6.9 6.9-2.8 2.8 4.5 4.5h19.5l-4-4z"/>
  <ellipse fill="#FFF" stroke="#231F20" stroke-miterlimit="10" cx="71" cy="99.3" rx="3" ry="2"/>
  <ellipse fill="#FFF" stroke="#231F20" stroke-miterlimit="10" cx="45" cy="99.3" rx="3" ry="2"/>
  <ellipse fill="#FFF" stroke="#231F20" stroke-miterlimit="10" cx="21" cy="99.3" rx="3" ry="2"/>
  <ellipse fill="#FFF" stroke="#231F20" stroke-width="1.017" stroke-miterlimit="10" cx="65.3" cy="84.1" rx="5.1" ry="3.1"/>
  <ellipse fill="#FFF" stroke="#231F20" stroke-miterlimit="10" cx="45" cy="84" rx="5" ry="3"/>
  <ellipse fill="#FFF" stroke="#231F20" stroke-width="1.017" stroke-miterlimit="10" cx="25.7" cy="84.1" rx="5.1" ry="3.1"/>
</svg>
